<svg xmlns="http://www.w3.org/2000/svg" xmlns:xlink="http://www.w3.org/1999/xlink" width="224.87999" zoomAndPan="magnify" viewBox="0 0 224.87999 40.499999" height="40.499999" preserveAspectRatio="xMidYMid meet" version="1.0"><defs><g><g id="id1"/></g></defs><g fill="rgb(18.429565%, 33.329773%, 83.139038%)" fill-opacity="1"><g transform="translate(5.338699, 30.877204)"><g><path d="M 17.25 -14.109375 C 17.25 -11.796875 16.566406 -10.007812 15.203125 -8.75 C 13.835938 -7.488281 11.898438 -6.859375 9.390625 -6.859375 L 7.828125 -6.859375 L 7.828125 0 L 2.234375 0 L 2.234375 -20.6875 L 9.390625 -20.6875 C 12.003906 -20.6875 13.96875 -20.113281 15.28125 -18.96875 C 16.59375 -17.832031 17.25 -16.210938 17.25 -14.109375 Z M 7.828125 -11.421875 L 8.84375 -11.421875 C 9.6875 -11.421875 10.351562 -11.65625 10.84375 -12.125 C 11.34375 -12.601562 11.59375 -13.253906 11.59375 -14.078125 C 11.59375 -15.472656 10.816406 -16.171875 9.265625 -16.171875 L 7.828125 -16.171875 Z M 7.828125 -11.421875 "/></g></g></g><g fill="rgb(18.429565%, 33.329773%, 83.139038%)" fill-opacity="1"><g transform="translate(23.655015, 30.877204)"><g><path d="M 19.96875 0 L 14.34375 0 L 14.34375 -8.4375 L 7.859375 -8.4375 L 7.859375 0 L 2.234375 0 L 2.234375 -20.6875 L 7.859375 -20.6875 L 7.859375 -13.015625 L 14.34375 -13.015625 L 14.34375 -20.6875 L 19.96875 -20.6875 Z M 19.96875 0 "/></g></g></g><g fill="rgb(18.429565%, 33.329773%, 83.139038%)" fill-opacity="1"><g transform="translate(45.863901, 30.877204)"><g><path d="M 21.59375 -10.375 C 21.59375 -6.894531 20.738281 -4.25 19.03125 -2.4375 C 17.320312 -0.625 14.820312 0.28125 11.53125 0.28125 C 8.289062 0.28125 5.800781 -0.628906 4.0625 -2.453125 C 2.332031 -4.273438 1.46875 -6.925781 1.46875 -10.40625 C 1.46875 -13.84375 2.328125 -16.46875 4.046875 -18.28125 C 5.773438 -20.101562 8.28125 -21.015625 11.5625 -21.015625 C 14.851562 -21.015625 17.347656 -20.113281 19.046875 -18.3125 C 20.742188 -16.507812 21.59375 -13.863281 21.59375 -10.375 Z M 7.359375 -10.375 C 7.359375 -6.375 8.75 -4.375 11.53125 -4.375 C 12.945312 -4.375 13.992188 -4.859375 14.671875 -5.828125 C 15.359375 -6.796875 15.703125 -8.3125 15.703125 -10.375 C 15.703125 -12.4375 15.351562 -13.960938 14.65625 -14.953125 C 13.96875 -15.941406 12.9375 -16.4375 11.5625 -16.4375 C 8.757812 -16.4375 7.359375 -14.414062 7.359375 -10.375 Z M 7.359375 -10.375 "/></g></g></g><g fill="rgb(18.429565%, 33.329773%, 83.139038%)" fill-opacity="1"><g transform="translate(68.96454, 30.877204)"><g><path d="M 20.875 0 L 14.40625 0 L 10.375 -6.46875 L 6.375 0 L 0.0625 0 L 6.921875 -10.59375 L 0.46875 -20.6875 L 6.671875 -20.6875 L 10.40625 -14.296875 L 14 -20.6875 L 20.375 -20.6875 L 13.828125 -10.140625 Z M 20.875 0 "/></g></g></g><g fill="rgb(18.429565%, 33.329773%, 83.139038%)" fill-opacity="1"><g transform="translate(89.927804, 30.877204)"><g><path d="M 9.625 -13.015625 L 13.1875 -20.6875 L 19.25 -20.6875 L 12.4375 -8.078125 L 12.4375 0 L 6.8125 0 L 6.8125 -7.90625 L 0 -20.6875 L 6.078125 -20.6875 Z M 9.625 -13.015625 "/></g></g></g><g fill="rgb(8.628845%, 10.978699%, 17.649841%)" fill-opacity="1"><g transform="translate(109.165982, 30.877204)"><g><path d="M 1.21875 -2.34375 C 1.21875 -3.21875 1.472656 -3.890625 1.984375 -4.359375 C 2.503906 -4.828125 3.253906 -5.0625 4.234375 -5.0625 C 5.160156 -5.0625 5.875 -4.828125 6.375 -4.359375 C 6.882812 -3.890625 7.140625 -3.21875 7.140625 -2.34375 C 7.140625 -1.5 6.878906 -0.835938 6.359375 -0.359375 C 5.847656 0.117188 5.140625 0.359375 4.234375 0.359375 C 3.296875 0.359375 2.554688 0.125 2.015625 -0.34375 C 1.484375 -0.820312 1.21875 -1.488281 1.21875 -2.34375 Z M 1.21875 -2.34375 "/></g></g></g><g fill="rgb(8.628845%, 10.978699%, 17.649841%)" fill-opacity="1"><g transform="translate(117.545625, 30.877204)"><g><path d="M 11.453125 -16.40625 C 10.117188 -16.40625 9.078125 -15.859375 8.328125 -14.765625 C 7.585938 -13.679688 7.21875 -12.179688 7.21875 -10.265625 C 7.21875 -6.273438 8.734375 -4.28125 11.765625 -4.28125 C 12.679688 -4.28125 13.566406 -4.40625 14.421875 -4.65625 C 15.273438 -4.914062 16.140625 -5.226562 17.015625 -5.59375 L 17.015625 -0.859375 C 15.285156 -0.0976562 13.332031 0.28125 11.15625 0.28125 C 8.03125 0.28125 5.632812 -0.625 3.96875 -2.4375 C 2.300781 -4.25 1.46875 -6.863281 1.46875 -10.28125 C 1.46875 -12.425781 1.867188 -14.3125 2.671875 -15.9375 C 3.484375 -17.5625 4.644531 -18.804688 6.15625 -19.671875 C 7.675781 -20.546875 9.457031 -20.984375 11.5 -20.984375 C 13.738281 -20.984375 15.878906 -20.5 17.921875 -19.53125 L 16.203125 -15.125 C 15.441406 -15.488281 14.675781 -15.789062 13.90625 -16.03125 C 13.144531 -16.28125 12.328125 -16.40625 11.453125 -16.40625 Z M 11.453125 -16.40625 "/></g></g></g><g fill="rgb(8.628845%, 10.978699%, 17.649841%)" fill-opacity="1"><g transform="translate(136.357359, 30.877204)"><g><path d="M 2.234375 0 L 2.234375 -20.6875 L 7.828125 -20.6875 L 7.828125 -4.515625 L 15.796875 -4.515625 L 15.796875 0 Z M 2.234375 0 "/></g></g></g><g fill="rgb(8.628845%, 10.978699%, 17.649841%)" fill-opacity="1"><g transform="translate(153.229885, 30.877204)"><g><path d="M 21.59375 -10.375 C 21.59375 -6.894531 20.738281 -4.25 19.03125 -2.4375 C 17.320312 -0.625 14.820312 0.28125 11.53125 0.28125 C 8.289062 0.28125 5.800781 -0.628906 4.0625 -2.453125 C 2.332031 -4.273438 1.46875 -6.925781 1.46875 -10.40625 C 1.46875 -13.84375 2.328125 -16.46875 4.046875 -18.28125 C 5.773438 -20.101562 8.28125 -21.015625 11.5625 -21.015625 C 14.851562 -21.015625 17.347656 -20.113281 19.046875 -18.3125 C 20.742188 -16.507812 21.59375 -13.863281 21.59375 -10.375 Z M 7.359375 -10.375 C 7.359375 -6.375 8.75 -4.375 11.53125 -4.375 C 12.945312 -4.375 13.992188 -4.859375 14.671875 -5.828125 C 15.359375 -6.796875 15.703125 -8.3125 15.703125 -10.375 C 15.703125 -12.4375 15.351562 -13.960938 14.65625 -14.953125 C 13.96875 -15.941406 12.9375 -16.4375 11.5625 -16.4375 C 8.757812 -16.4375 7.359375 -14.414062 7.359375 -10.375 Z M 7.359375 -10.375 "/></g></g></g><g fill="rgb(8.628845%, 10.978699%, 17.649841%)" fill-opacity="1"><g transform="translate(176.330524, 30.877204)"><g><path d="M 19.828125 -20.6875 L 19.828125 -8.234375 C 19.828125 -5.523438 19.0625 -3.425781 17.53125 -1.9375 C 16 -0.457031 13.785156 0.28125 10.890625 0.28125 C 8.078125 0.28125 5.910156 -0.4375 4.390625 -1.875 C 2.878906 -3.320312 2.125 -5.398438 2.125 -8.109375 L 2.125 -20.6875 L 7.734375 -20.6875 L 7.734375 -8.546875 C 7.734375 -7.085938 8.007812 -6.023438 8.5625 -5.359375 C 9.113281 -4.703125 9.921875 -4.375 10.984375 -4.375 C 12.117188 -4.375 12.941406 -4.703125 13.453125 -5.359375 C 13.972656 -6.015625 14.234375 -7.085938 14.234375 -8.578125 L 14.234375 -20.6875 Z M 19.828125 -20.6875 "/></g></g></g><g fill="rgb(8.628845%, 10.978699%, 17.649841%)" fill-opacity="1"><g transform="translate(198.270468, 30.877204)"><g><path d="M 19.796875 -10.78125 C 19.796875 -7.332031 18.84375 -4.671875 16.9375 -2.796875 C 15.039062 -0.929688 12.375 0 8.9375 0 L 2.234375 0 L 2.234375 -20.6875 L 9.390625 -20.6875 C 12.710938 -20.6875 15.273438 -19.835938 17.078125 -18.140625 C 18.890625 -16.441406 19.796875 -13.988281 19.796875 -10.78125 Z M 14 -10.59375 C 14 -12.488281 13.625 -13.890625 12.875 -14.796875 C 12.125 -15.710938 10.984375 -16.171875 9.453125 -16.171875 L 7.828125 -16.171875 L 7.828125 -4.578125 L 9.078125 -4.578125 C 10.773438 -4.578125 12.019531 -5.070312 12.8125 -6.0625 C 13.601562 -7.050781 14 -8.5625 14 -10.59375 Z M 14 -10.59375 "/></g></g></g></svg>